{
  "accessors": [
    {
      "bufferView": 2,
      "componentType": 5126,
      "count": 25542,
      "max": [
        1.1536815166473389,
        1.78128981590271,
        3.288015604019165
      ],
      "min": [
        -6.1506547927856445,
        -1.4129953384399414,
        -0.25449857115745544
      ],
      "type": "VEC3"
    },
    {
      "bufferView": 2,
      "byteOffset": 306504,
      "componentType": 5126,
      "count": 25542,
      "max": [
        1,
        1,
        1
      ],
      "min": [
        -1,
        -1,
        -1
      ],
      "type": "VEC3"
    },
    {
      "bufferView": 3,
      "componentType": 5126,
      "count": 25542,
      "max": [
        1,
        1,
        1,
        1
      ],
      "min": [
        -1,
        -1,
        -1,
        1
      ],
      "type": "VEC4"
    },
    {
      "bufferView": 1,
      "componentType": 5126,
      "count": 25542,
      "max": [
        0.99331825971603394,
        0.99816155433654785
      ],
      "min": [
        0.0018384766299277544,
        0.0018384766299277544
      ],
      "type": "VEC2"
    },
    {
      "bufferView": 0,
      "componentType": 5125,
      "count": 46290,
      "max": [
        25541
      ],
      "min": [
        0
      ],
      "type": "SCALAR"
    },
    {
      "bufferView": 2,
      "byteOffset": 613008,
      "componentType": 5126,
      "count": 1074,
      "max": [
        1.0879274606704712,
        1.3790278434753418,
        2.689051628112793
      ],
      "min": [
        -6.089911937713623,
        -1.3768379688262939,
        0.21354293823242188
      ],
      "type": "VEC3"
    },
    {
      "bufferView": 2,
      "byteOffset": 625896,
      "componentType": 5126,
      "count": 1074,
      "max": [
        1,
        1,
        5.033219167671632e-06
      ],
      "min": [
        -1,
        -1,
        -8.4651928773382679e-06
      ],
      "type": "VEC3"
    },
    {
      "bufferView": 3,
      "byteOffset": 408672,
      "componentType": 5126,
      "count": 1074,
      "max": [
        1,
        1,
        2.6569333755679936e-13,
        1
      ],
      "min": [
        -1,
        -1,
        -2.6569352729217954e-13,
        1
      ],
      "type": "VEC4"
    },
    {
      "bufferView": 1,
      "byteOffset": 204336,
      "componentType": 5126,
      "count": 1074,
      "max": [
        1,
        1
      ],
      "min": [
        0,
        0
      ],
      "type": "VEC2"
    },
    {
      "bufferView": 0,
      "byteOffset": 185160,
      "componentType": 5125,
      "count": 1968,
      "max": [
        1073
      ],
      "min": [
        0
      ],
      "type": "SCALAR"
    },
    {
      "bufferView": 2,
      "byteOffset": 638784,
      "componentType": 5126,
      "count": 16,
      "max": [
        0.94413352012634277,
        1.0999932289123535,
        3.1146078109741211
      ],
      "min": [
        -5.9411067962646484,
        -1.0999932289123535,
        2.9660241603851318
      ],
      "type": "VEC3"
    },
    {
      "bufferView": 2,
      "byteOffset": 638976,
      "componentType": 5126,
      "count": 16,
      "max": [
        1,
        1,
        0
      ],
      "min": [
        -1,
        -1,
        0
      ],
      "type": "VEC3"
    },
    {
      "bufferView": 3,
      "byteOffset": 425856,
      "componentType": 5126,
      "count": 16,
      "max": [
        1,
        0.99999982118606567,
        0.00069209450157359242,
        1
      ],
      "min": [
        -1,
        -0.99999982118606567,
        -0.00044157105730846524,
        1
      ],
      "type": "VEC4"
    },
    {
      "bufferView": 1,
      "byteOffset": 212928,
      "componentType": 5126,
      "count": 16,
      "max": [
        26.170722961425781,
        0.9974743127822876
      ],
      "min": [
        -25.229774475097656,
        -0.0074991881847381592
      ],
      "type": "VEC2"
    },
    {
      "bufferView": 0,
      "byteOffset": 193032,
      "componentType": 5125,
      "count": 24,
      "max": [
        15
      ],
      "min": [
        0
      ],
      "type": "SCALAR"
    }
  ],
  "asset": {
    "extras": {
      "author": "Shaft (https://sketchfab.com/shaftthegamer)",
      "license": "CC-BY-NC-SA-4.0 (http://creativecommons.org/licenses/by-nc-sa/4.0/)",
      "source": "https://sketchfab.com/models/0303c1cccb2e4546845b4581dca7e8f5",
      "title": "Old city building"
    },
    "generator": "Sketchfab-3.20.7",
    "version": "2.0"
  },
  "bufferViews": [
    {
      "buffer": 0,
      "byteLength": 193128,
      "byteOffset": 0,
      "name": "floatBufferViews",
      "target": 34963
    },
    {
      "buffer": 0,
      "byteLength": 213056,
      "byteOffset": 193128,
      "byteStride": 8,
      "name": "floatBufferViews",
      "target": 34962
    },
    {
      "buffer": 0,
      "byteLength": 639168,
      "byteOffset": 406184,
      "byteStride": 12,
      "name": "floatBufferViews",
      "target": 34962
    },
    {
      "buffer": 0,
      "byteLength": 426112,
      "byteOffset": 1045352,
      "byteStride": 16,
      "name": "floatBufferViews",
      "target": 34962
    }
  ],
  "buffers": [
    {
      "byteLength": 1471464,
      "uri": "scene.bin"
    }
  ],
  "images": [
    {
      "uri": "textures/building_main_baseColor.jpeg"
    },
    {
      "uri": "textures/metal_fence_baseColor.png"
    },
    {
      "uri": "textures/building_windows_baseColor.jpeg"
    }
  ],
  "materials": [
    {
      "doubleSided": true,
      "emissiveFactor": [
        0,
        0,
        0
      ],
      "name": "building_main",
      "pbrMetallicRoughness": {
        "baseColorFactor": [
          1,
          1,
          1,
          1
        ],
        "baseColorTexture": {
          "index": 0,
          "texCoord": 0
        },
        "metallicFactor": 0,
        "roughnessFactor": 0.59999999999999998
      }
    },
    {
      "doubleSided": true,
      "emissiveFactor": [
        0,
        0,
        0
      ],
      "name": "building_windows",
      "pbrMetallicRoughness": {
        "baseColorFactor": [
          1,
          1,
          1,
          1
        ],
        "baseColorTexture": {
          "index": 2,
          "texCoord": 0
        },
        "metallicFactor": 0,
        "roughnessFactor": 0.59999999999999998
      }
    },
    {
      "alphaMode": "BLEND",
      "doubleSided": true,
      "emissiveFactor": [
        0,
        0,
        0
      ],
      "name": "metal_fence",
      "pbrMetallicRoughness": {
        "baseColorFactor": [
          1,
          1,
          1,
          1
        ],
        "baseColorTexture": {
          "index": 1,
          "texCoord": 0
        },
        "metallicFactor": 0,
        "roughnessFactor": 0.59999999999999998
      }
    }
  ],
  "meshes": [
    {
      "name": "building_building_main_0",
      "primitives": [
        {
          "attributes": {
            "NORMAL": 1,
            "POSITION": 0,
            "TANGENT": 2,
            "TEXCOORD_0": 3
          },
          "indices": 4,
          "material": 0,
          "mode": 4
        }
      ]
    },
    {
      "name": "building_building_windows_0",
      "primitives": [
        {
          "attributes": {
            "NORMAL": 6,
            "POSITION": 5,
            "TANGENT": 7,
            "TEXCOORD_0": 8
          },
          "indices": 9,
          "material": 1,
          "mode": 4
        }
      ]
    },
    {
      "name": "building_metal_fence_0",
      "primitives": [
        {
          "attributes": {
            "NORMAL": 11,
            "POSITION": 10,
            "TANGENT": 12,
            "TEXCOORD_0": 13
          },
          "indices": 14,
          "material": 2,
          "mode": 4
        }
      ]
    }
  ],
  "nodes": [
    {
      "children": [
        1
      ],
      "name": "RootNode (gltf orientation matrix)",
      "rotation": [
        -0.70710678118654746,
        -0,
        -0,
        0.70710678118654757
      ]
    },
    {
      "children": [
        2
      ],
      "name": "RootNode (model correction matrix)"
    },
    {
      "children": [
        3
      ],
      "matrix": [
        1,
        0,
        0,
        0,
        0,
        0,
        1,
        0,
        0,
        -1,
        0,
        0,
        0,
        0,
        0,
        1
      ],
      "name": "building.fbx"
    },
    {
      "children": [
        4
      ],
      "name": "RootNode"
    },
    {
      "children": [
        5,
        6,
        7
      ],
      "matrix": [
        1,
        0,
        0,
        0,
        0,
        -1.6292067939183141e-07,
        -0.99999999999998679,
        0,
        0,
        0.99999999999998679,
        -1.6292067939183141e-07,
        0,
        0,
        -0.43946695327758789,
        0.015109062194824219,
        1
      ],
      "name": "building"
    },
    {
      "mesh": 0,
      "name": "building_building_main_0"
    },
    {
      "mesh": 1,
      "name": "building_building_windows_0"
    },
    {
      "mesh": 2,
      "name": "building_metal_fence_0"
    }
  ],
  "samplers": [
    {
      "magFilter": 9729,
      "minFilter": 9987,
      "wrapS": 10497,
      "wrapT": 10497
    }
  ],
  "scene": 0,
  "scenes": [
    {
      "name": "OSG_Scene",
      "nodes": [
        0
      ]
    }
  ],
  "textures": [
    {
      "sampler": 0,
      "source": 0
    },
    {
      "sampler": 0,
      "source": 1
    },
    {
      "sampler": 0,
      "source": 2
    }
  ]
}

